<?xml version="1.0" encoding="UTF-8"?>
<!DOCTYPE svg PUBLIC "-//W3C//DTD SVG 1.1//EN" "http://www.w3.org/Graphics/SVG/1.1/DTD/svg11.dtd">
<!-- Creator: CorelDRAW (Evaluation Version) -->
<svg xmlns="http://www.w3.org/2000/svg" xml:space="preserve" width="1.33333in" height="1.33333in" version="1.1" style="shape-rendering:geometricPrecision; text-rendering:geometricPrecision; image-rendering:optimizeQuality; fill-rule:evenodd; clip-rule:evenodd"
viewBox="0 0 1333.33 1333.33"
 xmlns:xlink="http://www.w3.org/1999/xlink"
 xmlns:xodm="http://www.corel.com/coreldraw/odm/2003">
 <defs>
  <style type="text/css">
   <![CDATA[
    .fil1 {fill:#BDB4B4}
    .fil0 {fill:#FEFEFE}
   ]]>
  </style>
 </defs>
 <g id="Layer_x0020_1">
  <metadata id="CorelCorpID_0Corel-Layer"/>
  <g id="_400417824">
   <path class="fil0" d="M86.13 506.48c0,1.26 0.33,0.99 -0.8,0.99l-0.06 0.67 -0.74 0.92 -0.04 0.73 -0.75 0.96c-12.08,32.87 -9.51,47.08 -9.51,81.45l0 182.94c0,56.86 -8.59,104.59 39.28,142.92 22.12,17.71 43.39,18.6 70.06,18.6 58.89,-0.02 117.79,0 176.68,0 0,45.33 -0.78,96.2 -0.04,140.95 0.14,8.04 3.72,8.89 14.04,14.24 12.3,6.39 26.56,13.11 39.09,16.21 0.99,-41.12 0.77,-87.28 0.3,-128.75 -0.15,-13.78 0.75,-28.21 0.09,-41.8 -1.13,-23.6 -11.64,-46.8 -35.09,-53.77 -12.43,-3.7 -28.47,-2.41 -41.41,-2.25 -14.73,0.18 -29.57,-0.05 -44.32,-0.05 -29.03,0 -58.06,-0.07 -87.08,-0.07 -23.94,-0 -53.97,5.41 -70.07,-17.77 -7.52,-10.81 -7.85,-24.33 -7.83,-37.18l0.23 -227.59c0.11,-24.69 -5.23,-58.56 13.17,-76.96 16.13,-16.13 52.22,-12 73.87,-12.11 28.79,-0.15 57.65,0.13 86.45,0.04 14.52,-0.04 28.82,-0.15 43.35,0.28 12.84,0.38 26.08,0.85 38.18,-4.4 23.7,-10.28 32.12,-31.92 32.06,-57.17 -0.15,-60.61 0.02,-121.36 -0.44,-181.96 -0.51,-66.42 29.88,-60.07 73.1,-59.94l218.5 0c24.18,-0.08 53.5,-5.64 67.5,20.43 8.45,15.74 5.5,64.94 5.48,84.94 -0.02,30.21 -0.14,60.46 -0.03,90.67 0.1,23.21 -4.03,63.57 8.61,82.53 16.18,24.27 35.01,25.29 61.3,25.26 27.48,-0.03 54.98,-0.53 82.51,-0.61 28.13,-0.07 58.15,-1.07 86.06,-0.04 27.09,1.01 44.46,13.57 46.58,43.02l0.29 90.08c-0.92,47.03 -1.03,42.18 25.7,12.75 23.93,-26.35 29.78,-19.74 28.13,-60.86 -1.31,-32.95 3.5,-49.83 -8.78,-82.26l-0.72 -1.09 -0.86 -2.3 -0.73 -1c-9.4,-19.28 -24.47,-34.65 -43.16,-44.18 -25.04,-12.76 -50.29,-9.39 -77.33,-9.39 -28.8,0 -57.58,0 -86.37,0 -14.15,0 -28.54,0.28 -42.65,-0.14 -24.47,-0.73 -24.26,7.2 -23.74,-20.64 0.56,-29.49 -0.17,-60.02 -0.17,-89.65 0,-29.91 0.3,-59.98 0.04,-89.87 -0.42,-48.36 -28.74,-91.16 -75.54,-101.07 -15.2,-3.22 -65.98,-1.89 -84.54,-1.89 -57.58,0 -115.15,0 -172.73,0 -25.66,0 -55.85,-2.78 -79.98,6.63 -19.32,7.54 -36.2,22.9 -46.6,41.35 -14.79,26.21 -13.45,46.52 -13.64,75.64 -0.38,59.82 -0.01,119.79 -0.01,179.63 -54.14,0 -108.29,0 -162.42,0 -26.15,0 -46.99,-2.44 -71.05,10.16 -14.07,7.38 -36.37,26 -41.45,41.75z"/>
   <path class="fil0" d="M1220.14 736.4l1.89 -3.8 1.32 2.15 26.85 26.16c2.54,2.64 5.94,8.15 9.6,7.14 1.01,-3.77 -2.04,-51.69 -2.68,-63.78 -0.19,-3.72 0.14,-7.81 0.03,-11.57 -0.25,-8.54 -1.65,-21.57 -1.61,-32.11l-3.17 -65.92c-4.3,1.28 -85.71,66.92 -100.95,78.76l-25.37 19.77c-3.74,2.91 -6.7,3.57 -6.79,8.6l45.93 5.17c-9.2,18.86 -55.65,82.45 -70.19,100.62 -78.34,97.94 -160.74,177.46 -265.97,245.83 -71.25,46.29 -151.25,85.61 -233.12,106.11 -49.01,12.27 -98.88,20.08 -149.43,17.06 -38.66,-2.31 -67.57,-7.99 -102.55,-24.37 -9.63,-4.5 -18.43,-10.94 -28.06,-14.48 21.85,33.19 77.68,59.02 114.05,69.26 51.25,14.42 112.26,14.23 164.53,6.24 95.24,-14.56 180.14,-52.34 262.62,-102.63 147.96,-90.21 271.39,-224.39 363.06,-374.19z"/>
   <path class="fil0" d="M787.3 599.61c-22.19,3.94 -22.34,25.72 -22.19,44.51 0.57,66.98 0,136.37 0,203.54 0,45.32 0,90.65 0,135.97 0,49.99 -3.26,44.85 16.12,33.3 13.78,-8.21 27.34,-17.2 40.73,-26.08 13.23,-8.79 25.64,-18.26 38.45,-27.58 21.58,-15.71 16.41,-10.91 16.41,-50.5l-0 -271.94c0.11,-18.94 -1.58,-39.77 -24.67,-41.91 -8.06,-0.74 -57.81,-0.55 -64.85,0.7z"/>
   <path class="fil0" d="M638.35 711.68c-20.61,3.3 -23.39,18.11 -23.78,37.07 -0.44,20.65 0.02,41.92 0.02,62.65l0 249.69c-0,35.28 -6.83,34.09 22.69,23.6 35.85,-12.75 51.73,-21.37 84.65,-36.39 9.14,-4.17 5.9,-15.48 5.96,-25.11l0 -218.38c0,-20.34 0.8,-42.49 -0.03,-62.6 -0.81,-19.39 -10.94,-31.31 -30.01,-31.41 -16.44,-0.09 -44.32,-1.53 -59.49,0.89z"/>
   <path class="fil0" d="M488.61 866.61c-11.04,2.18 -20.84,10.04 -22.07,22.37 -0.94,9.46 -0.11,119.46 -0.11,135.02 0,9.89 -1.33,88.01 1.04,90.39 6.19,6.2 80.54,-4.2 99.5,-8.89 9.52,-2.36 11.65,0.04 11.22,-11.4 -0.56,-14.97 -0.04,-31.09 -0.04,-46.2l0 -137.62c0.01,-13.42 1.87,-27.07 -8.73,-37.06 -10.48,-9.89 -24.15,-7.44 -37.22,-7.44 -11.81,0 -32.92,-1.28 -43.57,0.82z"/>
   <polygon class="fil1" points="1220.14,736.4 1223.35,734.76 1222.03,732.61 "/>
   <path class="fil1" d="M86.13 506.48c-1.12,0 -0.8,-0.26 -0.8,0.99 1.13,0 0.8,0.27 0.8,-0.99z"/>
   <polygon class="fil1" points="85.27,508.14 84.54,509.06 "/>
   <polygon class="fil1" points="1108.18,509.13 1107.44,508.14 "/>
   <polygon class="fil1" points="84.49,509.78 83.74,510.74 "/>
   <polygon class="fil1" points="1109.76,512.53 1109.04,511.43 "/>
  </g>
 </g>
</svg>
