<svg xmlns="http://www.w3.org/2000/svg" preserveAspectRatio="xMidYMid meet" version="1.0" viewBox="0 0 187.5 52.5" zoomAndPan="magnify"><path d="M9.93865 42.12545c-.28125 0-.57422-.0625-.875-.1875-.3047-.125-.5625-.29688-.78125-.51563-.21094-.21875-.3125-.48046-.3125-.78125 0-1.1875 2.41015-3.89062 7.23437-8.10937l3.45313-3.0625c-1.29297.125-2.96875.39844-5.03125.8125-2.0547.41797-4.1172.92969-6.1875 1.53125-.10547-.07031-.1797-.35938-.21875-.85938-.03125-.5078-.04688-.96875-.04688-1.375v-.375c0-.0703.25-.17578.75-.3125.50781-.14453.98828-.26562 1.4375-.35937.45703-.10156.80078-.17188 1.03125-.20313.10156 0 .15625.04297.15625.125 0 .07422-.05469.19532-.15625.35938-.10547.15625-.16797.26172-.1875.3125 1.25781-.22656 2.6172-.4375 4.07813-.625 1.46875-.1875 3.5664-.42969 6.29687-.73438l6.03125-5.375c3.28125-2.90625 6.19531-5.58203 8.75-8.03125 2.55078-2.45703 4.58594-4.6953 6.10938-6.71875.21874-.30078.39062-.45312.51562-.45312.05078 0 .09766.04687.14063.14062.03906.08594.0625.1875.0625.3125 0 .33594-.07813.7422-.23438 1.21875-.14844.48047-.375.96485-.6875 1.45313-.30469.49219-.65234.91406-1.04688 1.26562l-.60937.53125c.14453-.09375.26953-.14062.375-.14062.60156 0 1.0625.22656 1.375.67187.32031.4375.48438.96094.48438 1.5625 0 .07422-.02344.13672-.0625.1875-.03126.0547-.07422.07813-.125.07813-.0547 0-.1211-.02344-.20313-.07813-.07422-.05078-.1836-.07812-.32813-.07812-.4375 0-1.10546.8203-2 2.45312-.89843 1.625-1.78124 3.39063-2.65624 5.29688-.8672 1.90625-1.52735 3.42969-1.98438 4.5625.86328 0 1.49219.08984 1.89063.26562.40624.1797.60937.46875.60937.875 0 .23047-.03906.45313-.10938.67188-.07421.21094-.16406.375-.26562.5-.10547.125-.19531.1875-.26563.1875 0-.07031-.12109-.20703-.35937-.40625-.24219-.20703-.53125-.39844-.875-.57813-.33594-.17578-.65234-.27343-.95313-.29687-.08593.19922-.26171.82812-.53124 1.89062-.26172 1.0625-.5 2.22657-.71876 3.48438-.21093 1.26172-.3125 2.36719-.3125 3.32812 0 .50782.06641.87891.20313 1.10938.14453.22656.35156.34375.625.34375.50781 0 1.15625-.26563 1.9375-.79688l.42188-.3125c.01953 0 .03515.00782.04687.03125.01953.03125.03125.07032.03125.125 0 .10157-.17969.35157-.53125.75-.35547.40625-.82813.78125-1.42188 1.125-.59374.34375-1.27343.51563-2.03124.51563-1.4922 0-2.23438-.91406-2.23438-2.73438 0-1.13671.21875-2.45312.65625-3.95312.44531-1.50781 1.02344-3.20703 1.73438-5.09375-1.71876.19922-3.6172.46875-5.6875.8125-2.07422.33594-3.91797.75781-5.53125 1.26562-.8125.48047-1.98438 1.4336-3.51563 2.85938-1.52344 1.42969-2.9336 2.88672-4.23438 4.375-1.30468 1.48828-2.09374 2.61328-2.375 3.375-.17968.47656-.26562.83203-.26562 1.0625 0 .07031.00781.14453.03125.21875.03125.08203.04688.14844.04688.20312 0 .09375-.0547.16407-.15625.21875-.09375.05079-.23047.07813-.40625.07813Zm13.14062-14.70313c1.34375-.3203 2.75781-.53906 4.25-.65625 1.48828-.11328 3.1914-.17187 5.10938-.17187.8828-2.35156 1.97656-5.01563 3.28124-7.98438 1.30079-2.96875 2.42188-4.98437 3.35938-6.04687-1.39844 1.24219-3.98438 3.64062-7.76563 7.20312-3.01171 2.85547-5.7578 5.40625-8.23437 7.65625Zm14.85781 19.9375c-1.00782 0-1.71875-.21875-2.125-.65625-.40625-.42968-.60938-1.0703-.60938-1.92187 0-1.69922.52734-3.92188 1.57813-6.67188 1.05468-2.75 2.17968-5.28906 3.39062-7.625-.07422.03125-.1875.04688-.34375.04688-.27344 0-.40625-.14844-.40625-.45313 0-.22656.09375-.49218.28125-.79687.1875-.30078.45703-.59766.8125-.89063.35156-.28906.75781-.51562 1.21875-.67187 1.63281-3 3.44531-5.95703 5.4375-8.875 2-2.91406 3.85156-5.30078 5.5625-7.15625 1.70703-1.86328 2.97656-2.79688 3.8125-2.79688.30078 0 .7539.14063 1.35938.42188.60156.28125 1.14062.625 1.60937 1.03125.46875.39844.70313.76172.70313 1.09375 0 .55469-.85938 1.78125-2.57813 3.6875-1.71875 1.90625-3.78125 3.96875-6.1875 6.1875-2.39844 2.21094-4.47656 3.96875-6.23437 5.28125 1.45703-.40625 2.67578-.71094 3.65625-.92188.98828-.21875 1.92578-.32812 2.8125-.32812.40625 0 .74218.03125 1.01562.09375.28125.0625.42188.19531.42188.39062 0 .1797-.08985.26563-.26563.26563l-.45312-.03125c-.875 0-2.07422.28906-3.59375.85937-1.51172.5625-3.39063 1.33594-5.64063 2.3125-.26172.4922-.48047.92188-.65625 1.29688-.17969.375-.35156.76562-.51562 1.17187.875-.47656 1.6953-.875 2.46875-1.1875.76953-.3203 1.5-.48437 2.1875-.48437.80078 0 1.40625.32031 1.8125.95312.40625.63672.60937 1.4961.60937 2.57813 0 .98047-.17187 2.05469-.51562 3.23437-.33594 1.17579-.82422 2.35157-1.46875 3.53125-.64844 1.17579-1.41407 2.22657-2.29688 3.15625-.99219 1.03907-1.8711 1.84375-2.64062 2.40625-.77344.57032-1.48438.95704-2.14063 1.15625-.65625.20704-1.35156.3125-2.07812.3125Zm7.20312-21.98437c1.53906-1.33203 3.36328-3 5.46875-5 2.11328-2 3.92969-3.83594 5.45313-5.51563 1.53125-1.67578 2.29687-2.7539 2.29687-3.23437 0-.25-.08984-.4375-.26562-.5625-.1797-.13281-.39063-.20313-.64063-.20313-.8125 0-1.9336.73438-3.35937 2.20313-1.4297 1.46875-2.9375 3.32422-4.53125 5.5625-1.58594 2.23047-3.0586 4.48047-4.42188 6.75Zm-6.51562 20.92187c.75 0 1.84765-.79687 3.29687-2.39062 1.45703-1.59375 2.75-3.46484 3.875-5.60938 1.125-2.14843 1.6875-4 1.6875-5.5625 0-.5078-.09375-.8828-.28125-1.125-.1875-.23828-.48437-.35937-.89062-.35937-1.29297 0-3.01172.79687-5.15625 2.39062-1.01172 2.375-1.8125 4.58204-2.40625 6.625-.59375 2.05079-.89063 3.62891-.89063 4.73438 0 .45703.0586.78516.17188.98437.11718.20704.3125.3125.59375.3125Zm13.78818 1.96875c-.30468 0-.76172-.12109-1.375-.35937-.625-.24219-1.17968-.54688-1.67187-.92188-.5-.36718-.75-.71093-.75-1.03125 0-.73046.6211-1.76171 1.85937-3.09375 1.23828-1.32421 2.65625-2.60546 4.25-3.84375 1.59375-1.24218 2.78907-2.03906 3.59375-2.39062.47657-.19922.8047-.29688.98438-.29688.10156 0 .15625.02344.15625.07813 0 .09375-.15235.24219-.45313.45312-.65625.45704-1.6875 1.27344-3.09375 2.45313-1.39843 1.1875-2.65234 2.38281-3.76562 3.59375-1.11328 1.21875-1.67188 2.1289-1.67188 2.73437 0 .45704.32032.6875.95313.6875 1.59375 0 4.0664-2.625 7.42187-7.875.65625-1.01171 1.3047-2.16796 1.95313-3.46875.64453-1.30078.96875-2.34375.96875-3.125 0-.86328-.40625-1.29687-1.21875-1.29687-.53125 0-1.1875.1875-1.96875.5625-.78125.36719-1.88282.96484-3.29688 1.79687-.125.07422-.22656.10938-.29687.10938-.21094 0-.40625-.16016-.59375-.48438-.1875-.33203-.28125-.64062-.28125-.92187 0-.32031.51953-.92188 1.5625-1.79688 1.05078-.875 2.82812-2.1914 5.32812-3.95312l1.0625-.71875c0-.13281-.10547-.23828-.3125-.3125-.19922-.07031-.46875-.10938-.8125-.10938-.83593 0-1.86718.13672-3.09375.40625-1.23047.26172-2.0586.52735-2.48437.79688-.14844-.34375-.21875-.65625-.21875-.9375 0-.35156.09375-.66406.28125-.9375.1875-.28125.41015-.50781.67187-.6875.26953-.17578.51953-.28906.75-.34375.35157-.08203.875-.14453 1.5625-.1875.69532-.05078 1.39844-.07813 2.10938-.07813 1.25781 0 2.33593.08985 3.23437.26563.89453.17969 1.38282.48047 1.46875.90625.01953.07422.03125.35156.03125.82812 0 .35547-.01172.57422-.03125.65625-.8672.07422-2.1797.64063-3.9375 1.70313-1.75 1.05469-3.3711 2.125-4.85937 3.21875l-.42188.29687c.50782-.22656 1.26953-.46875 2.28125-.71875.88282-.1953 1.64063-.29687 2.26563-.29687 1.92578 0 2.89062.8711 2.89062 2.60937 0 .96094-.26562 2.08985-.79687 3.39063-.53125 1.30078-1.20313 2.59766-2.01563 3.89062-1.59375 2.55079-3.1328 4.64454-4.60937 6.28125-1.46875 1.64454-2.67188 2.46875-3.60938 2.46875ZM74.46343 36.0317c-.46093 0-.82812-.1836-1.10937-.54688-.27344-.375-.40625-.89843-.40625-1.57812 0-.91406.17969-1.89844.54687-2.95313.36328-1.0625.78516-2.05078 1.26563-2.96875-.35547.38672-.94922 1.17188-1.78125 2.35938-1.13672 1.66797-2.13672 2.98047-3 3.9375-.85547.96094-1.64844 1.4375-2.375 1.4375-.5547 0-1.0586-.1875-1.51563-.5625-.46093-.38281-.6875-.99219-.6875-1.82813 0-.78125.21875-1.70703.65625-2.78125.44532-1.0703 1.10157-2.26562 1.96875-3.57812.60157-.9375 1.35157-1.78906 2.25-2.5625.89453-.76953 1.82813-1.375 2.79688-1.8125.97656-.44531 1.89453-.67188 2.75-.67188.30078 0 .71094.07032 1.23437.20313.51953.125.97266.30469 1.35938.53125.39453.21875.59375.48047.59375.78125 0 .10547-.02735.1875-.07813.25-.05468.0625-.11718.09375-.1875.09375-.07422 0-.19922-.04688-.375-.14063-.60547-.35156-1.17187-.53125-1.70312-.53125-.91797 0-1.91797.34375-3 1.03125-1.08594.6797-2.21875 1.82422-3.40625 3.4375-1.2422 1.6875-2.08594 3.00782-2.53125 3.95313-.4375.94922-.65625 1.67969-.65625 2.1875 0 .375.14062.5625.42187.5625.30078 0 .70313-.20313 1.20313-.60938 1.09375-.8828 2.11719-1.89843 3.07812-3.04687.95703-1.14453 1.76563-2.22656 2.42188-3.25.65625-1.03125 1.125-1.85938 1.40625-2.48438.01953-.10156.10937-.15625.26562-.15625.19532 0 .42188.08985.67188.26563.2578.17969.48437.40234.67187.67187.1875.26172.28125.54297.28125.84375 0 .23047-.05468.4336-.15625.60938-.60547 1.05469-1.10547 2.07031-1.5 3.04687-.38672.96875-.57812 1.85938-.57812 2.67188 0 .73047.22656 1.09375.6875 1.09375.375 0 .83203-.2539 1.375-.76563.53906-.51953 1.28906-1.39843 2.25-2.64062.70703-.88281 1.16015-1.4414 1.35937-1.67188.20703-.22656.375-.34375.5-.34375.10157 0 .1875.02735.25.07813.0625.05469.09375.11719.09375.1875 0 .10547-.16797.41406-.5.92187-.57422.9297-1.26172 1.875-2.0625 2.84375-.79297.96094-1.61718 1.78125-2.46875 2.46875-.84375.67579-1.60547 1.01563-2.28125 1.01563Zm0 0" fill="#fff" fill-opacity="1"/><path d="M82.75706 36.0942c-1.01172 0-1.7461-.28125-2.20312-.84375-.44922-.57031-.67188-1.32031-.67188-2.25 0-1.03906.21875-2.19531.65625-3.46875.44532-1.28125 1.23828-2.90625 2.375-4.875 1.61328-2.83203 3.27344-5.44531 4.98438-7.84375 1.70703-2.39453 3.27344-4.3125 4.70312-5.75 1.42578-1.44531 2.53907-2.17188 3.34375-2.17188.28125 0 .72657.14063 1.34375.42188.625.28125 1.17578.625 1.65625 1.03125.47657.39844.71875.76172.71875 1.09375 0 .25-.19922.66406-.59375 1.23437-.38672.5625-.92187 1.22657-1.60937 1.98438-1.3125 1.49219-3.26563 3.39062-5.85938 5.70312-2.58593 2.3125-5 4.28907-7.25 5.92188-1.51172 2.78125-2.26562 5.03125-2.26562 6.75 0 1.11719.375 1.67187 1.125 1.67187 1.09375 0 2.24219-.46875 3.45312-1.40625 1.20703-.9375 2.64453-2.53125 4.3125-4.78125.10157-.125.1914-.1875.26563-.1875.10156 0 .17969.0547.23437.15625.05078.10547.07813.23047.07813.375 0 .07422-.0625.22657-.1875.45313-.6875 1.21875-1.50781 2.35156-2.45313 3.39062-.94922 1.03125-1.96093 1.85547-3.03125 2.46875-1.07422.61329-2.11718.92188-3.125.92188Zm2.8125-11.85938c3-2.64453 5.77344-5.22656 8.32813-7.75 2.55078-2.53125 3.82812-4.14843 3.82812-4.85937 0-.25-.08984-.4375-.26562-.5625-.17969-.13281-.39063-.20313-.64063-.20313-.96093 0-2.3203 1.04297-4.07812 3.125-1.75 2.08594-3.66406 4.71875-5.73438 7.90625Zm48.00953 18.57813c-1.24219 0-2.66406-.5586-4.26563-1.67188-1.60546-1.11718-3.4375-2.77343-5.5-4.96875-2.0625-2.1953-4.45312-5.02343-7.17187-8.48437-.71097.88672-1.50003 1.91797-2.37503 3.09375-.875 1.16797-1.6875 2.35937-2.4375 3.57812-1.09375 1.71875-1.82422 2.97266-2.1875 3.76563-.36719.80078-.54688 1.47656-.54688 2.03125.00001.14453.0469.34375.14064.59375.10156.25781.15625.42578.15625.5 0 .10156-.08984.15625-.26563.15625-.21875 0-.48437-.07813-.79687-.23438-.3047-.14843-.57033-.35546-.7969-.625-.21874-.26171-.3281-.5703-.3281-.92187-.00002-.6875.48435-1.96094 1.4531-3.8125.96876-1.85156 2.50392-4.46094 4.6094-7.82813l1.46873-2.375c-.65625-.83203-1.15234-1.5-1.48438-2-.3242-.5078-.48437-.90625-.48437-1.1875 0-.30078.09374-.60937.28124-.92187.19531-.32031.42578-.57813.6875-.76563.25781-.1875.5039-.28125.73438-.28125.15624 0 .3203.125.5.375.17578.25.42578.73047.75 1.4375.20703.40625.35937.6875.45312.84375 1.28906-2.375 2.26563-4.2539 2.92188-5.64062.65624-1.39453 1.09765-2.5039 1.32812-3.32813.22656-.8203.34375-1.59765.34375-2.32812 0-.86328-.21094-1.53906-.625-2.03125-.41797-.48828-1.07813-.73438-1.98438-.73438-1.77342 0-3.91795.7422-6.43749 2.21875-2.5117 1.48047-4.93359 3.32422-7.26562 5.53125-2.33595 2.21094-4.1211 4.32422-5.35939 6.34375-.17967.28125-.2656.46094-.2656.53125-.00002.02344.02342.03125.0781.03125.09376-.01953.26955-.07812.53126-.17187.26954-.10156.46875-.15625.59375-.15625.13282 0 .20313.03906.20313.10937-.05469 0-.1875.10547-.40625.3125-.21875.19922-.4375.3672-.65625.5-.21094.13672-.42969.20313-.65625.20313-.25 0-.51563-.11719-.79688-.35938-.27342-.23828-.5117-.5078-.71874-.8125-.1992-.30078-.29687-.48828-.29687-.5625-.00002-1.0625 1.05076-2.54687 3.15623-4.45312 2.11328-1.90625 4.54688-3.75781 7.29688-5.5625 2.7578-1.8125 4.86718-3.03516 6.32812-3.67188 2.14453-.90625 4.03125-1.35937 5.65625-1.35937 1.33203 0 2.35938.33984 3.07813 1.01562.71874.66797 1.07812 1.6172 1.07812 2.84375 0 1.01172-.26563 2.1797-.79688 3.5-.53125 1.3125-1.21875 2.71094-2.0625 4.1875-.84375 1.46875-1.9375 3.2422-3.28125 5.3125.15625.23047.3125.4336.46875.60938 5.4258-6.61328 9.6172-11.23828 12.57813-13.875 1.61328-1.4375 3.11328-2.5 4.5-3.1875 1.39453-.69531 2.59766-1.04688 3.60938-1.04688.80078 0 1.4375.22657 1.90625.67188.46875.4375.70312 1.02344.70312 1.75 0 .58594-.15234 1.22656-.45313 1.92187-.30468.6875-.77343 1.39844-1.40624 2.125-.4297.51172-.7422.76563-.9375.76563-.13672 0-.20313-.09766-.20313-.29688 0-.10156.03125-.24218.09375-.42187.07031-.17578.15625-.40625.25-.6875.20703-.53125.34766-.9375.42188-1.21875.0703-.28906.10937-.53906.10937-.75 0-.53125-.14844-.95703-.4375-1.28125-.29297-.33203-.71484-.5-1.26563-.5-.73046 0-1.65234.3086-2.76562.92187-1.11719.60547-2.41797 1.5625-3.90625 2.875-1.61719 1.4375-3.51172 3.33985-5.6875 5.70313-2.16797 2.35547-4.32422 4.83594-6.46875 7.4375 1.78906 2.42969 3.73828 4.76562 5.84375 7.01562 2.11328 2.25 4.10156 4.06641 5.96875 5.45313 1.875 1.38281 3.34375 2.07812 4.40625 2.07812.22656 0 .39063-.05468.48438-.15625.10156-.09375.15625-.21875.15625-.375 0-.14843-.0547-.44921-.15625-.90625-.09375-.35546-.14063-.60546-.14063-.75 0-.21093.0625-.3125.1875-.3125.09375 0 .20703.12891.34375.39063.14453.26953.26563.59375.35938.96875.10156.38281.15625.72656.15625 1.03125 0 .65625-.19922 1.19531-.59375 1.625-.38672.4375-.95313.65625-1.70313.65625Zm0 0" fill="#fff" fill-opacity="1"/><path d="M132.89226 36.17232c-.30469 0-.5625-.08593-.78125-.25-.21875-.15625-.38672-.35156-.5-.57812-.10547-.22656-.15625-.42969-.15625-.60938 0-.70703.39844-1.95703 1.20312-3.75.8125-1.78906 1.8672-3.82812 3.17188-6.10937 1.30078-2.28906 2.65625-4.48438 4.0625-6.57813 2.01953-3.0078 3.80469-5.32812 5.35937-6.95312 1.5625-1.63281 2.76953-2.45313 3.625-2.45313.30078 0 .75.14063 1.34375.42188s1.1289.625 1.60938 1.03125c.47656.39844.71875.76172.71875 1.09375 0 .65625-1.01172 2.02344-3.03125 4.09375-2.02344 2.0625-4.33594 4.23047-6.9375 6.5-2.59375 2.26172-4.53906 3.84375-5.82813 4.75-.53125 1.01172-1.125 2.53906-1.78125 4.57812.58203-.8828 1.3672-1.86718 2.35938-2.95312 1-1.08203 1.85156-1.96875 2.5625-2.65625.4375-.39453.92578-.76563 1.46875-1.10938.53906-.34375 1.07812-.51562 1.60937-.51562.44532 0 .8125.14844 1.09375.4375.28125.29297.42188.75.42188 1.375 0 .26172-.0625.8086-.1875 1.64062-.03125.14844-.10547.71094-.21875 1.6875-.11719.96875-.17188 1.85938-.17188 2.67188 0 .625.0625 1.10937.1875 1.45312.13282.34375.36328.51563.6875.51563.40625 0 .91016-.33203 1.51563-1 .60156-.67578 1.3125-1.58203 2.125-2.71875l.1875-.26563c.63281-.8828 1.01562-1.32812 1.14062-1.32812.10157 0 .1914.0586.26563.17187.07031.1172.10937.23438.10937.35938 0 .10547-.02734.19531-.07812.26562l-.71875 1.09375c-.58594.91797-1.17969 1.73047-1.78125 2.4375-.71094.83594-1.36719 1.50782-1.96875 2.01563-.60547.5-1.23438.75-1.89063.75-.76172 0-1.28125-.34766-1.5625-1.04688-.27343-.6953-.40625-1.59765-.40625-2.70312 0-.53125.00782-.98438.03125-1.35938.03125-.3828.0547-.70312.07813-.95312.07031-.73828.10937-1.41016.10937-2.01563 0-.58203-.04687-.99218-.14062-1.23437-.08594-.23828-.22656-.35938-.42188-.35938-.51172 0-1.21484.51563-2.10937 1.54688-.89844 1.02344-1.82813 2.27734-2.79688 3.76562-.96875 1.4922-1.85156 2.95313-2.64062 4.39063-.17969.17578-.33594.29687-.46875.35937-.13672.0625-.29297.09375-.46875.09375Zm5.10937-11.59375c1.66407-1.41406 3.48438-3.03125 5.45313-4.84375 1.96875-1.8203 3.66406-3.5039 5.09375-5.04687 1.42578-1.53906 2.14062-2.5625 2.14062-3.0625 0-.25-.08984-.4375-.26562-.5625-.16797-.13281-.38281-.20313-.64063-.20313-.80468 0-1.8828.6797-3.23437 2.03125-1.35547 1.35547-2.79297 3.07813-4.3125 5.17188-1.51172 2.09375-2.92188 4.26562-4.23438 6.51562Zm0 0" fill="#fff" fill-opacity="1"/><path d="M156.91042 36.0317c-.46093 0-.82812-.1836-1.10937-.54688-.27344-.375-.40625-.89843-.40625-1.57812 0-.91406.17969-1.89844.54687-2.95313.36328-1.0625.78516-2.05078 1.26563-2.96875-.35547.38672-.94922 1.17188-1.78125 2.35938-1.13672 1.66797-2.13672 2.98047-3 3.9375-.85547.96094-1.64844 1.4375-2.375 1.4375-.5547 0-1.0586-.1875-1.51563-.5625-.46093-.38281-.6875-.99219-.6875-1.82813 0-.78125.21875-1.70703.65625-2.78125.44532-1.0703 1.10157-2.26562 1.96875-3.57812.60157-.9375 1.35157-1.78906 2.25-2.5625.89453-.76953 1.82813-1.375 2.79688-1.8125.97656-.44531 1.89453-.67188 2.75-.67188.30078 0 .71094.07032 1.23437.20313.51953.125.97266.30469 1.35938.53125.39453.21875.59375.48047.59375.78125 0 .10547-.02735.1875-.07813.25-.05468.0625-.11718.09375-.1875.09375-.07422 0-.19922-.04688-.375-.14063-.60547-.35156-1.17187-.53125-1.70312-.53125-.91797 0-1.91797.34375-3 1.03125-1.08594.6797-2.21875 1.82422-3.40625 3.4375-1.2422 1.6875-2.08594 3.00782-2.53125 3.95313-.4375.94922-.65625 1.67969-.65625 2.1875 0 .375.14062.5625.42187.5625.30078 0 .70313-.20313 1.20313-.60938 1.09375-.8828 2.11719-1.89843 3.07812-3.04687.95703-1.14453 1.76563-2.22656 2.42188-3.25.65625-1.03125 1.125-1.85938 1.40625-2.48438.01953-.10156.10937-.15625.26562-.15625.19532 0 .42188.08985.67188.26563.2578.17969.48437.40234.67187.67187.1875.26172.28125.54297.28125.84375 0 .23047-.05468.4336-.15625.60938-.60547 1.05469-1.10547 2.07031-1.5 3.04687-.38672.96875-.57812 1.85938-.57812 2.67188 0 .73047.22656 1.09375.6875 1.09375.375 0 .83203-.2539 1.375-.76563.53906-.51953 1.28906-1.39843 2.25-2.64062.70703-.88281 1.16015-1.4414 1.35937-1.67188.20703-.22656.375-.34375.5-.34375.10157 0 .1875.02735.25.07813.0625.05469.09375.11719.09375.1875 0 .10547-.16797.41406-.5.92187-.57422.9297-1.26172 1.875-2.0625 2.84375-.79297.96094-1.61718 1.78125-2.46875 2.46875-.84375.67579-1.60547 1.01563-2.28125 1.01563Zm0 0" fill="#fff" fill-opacity="1"/><path d="M165.51655 35.82857c-.35547 0-.6875-.05859-1-.17187-.30469-.10547-.45312-.23438-.45312-.39063 0-.0703.0625-.20703.1875-.40625.1328-.20703.33593-.53906.60937-1 1.34375-2.26953 2.33594-4.0664 2.98438-5.39062.64453-1.33203 1.17968-2.6914 1.60937-4.07813.10156-.30078.15625-.51562.15625-.64062 0-.28125-.17969-.42188-.53125-.42188-.33594 0-.75781.28907-1.26562.85938-.5.5625-1.20313 1.51562-2.10938 2.85937l-2.6875 3.85938c-.21094.28125-.35156.42187-.42187.42187-.07422 0-.13282-.0625-.17188-.1875-.04297-.125-.0625-.26562-.0625-.42187 0-.22656.02344-.3789.07813-.45313 1.16406-1.6953 1.96093-2.89453 2.39062-3.59375l2.84375-4.59375c.07031-.125.2539-.22265.54688-.29687.28906-.08203.5625-.125.8125-.125.40625 0 .83203.10156 1.28125.29687.45703.1875.83593.44922 1.14062.78125.30078.32422.45313.67188.45313 1.04688 0 .30469-.14063.78125-.42188 1.4375-.27344.65625-.71094 1.60547-1.3125 2.84375-.10547.23047-.26172.54297-.46875.9375-.19922.38672-.33594.69531-.40625.92187 2-2.21875 3.28516-3.60937 3.85938-4.17187.40625-.375.89062-.73828 1.45312-1.09375.57031-.35156 1.11328-.53125 1.625-.53125.47656 0 .85156.16406 1.125.48437.28125.3125.42188.78125.42188 1.40625 0 .3047-.0625.8711-.1875 1.70313-.02344.17969-.08985.73437-.20313 1.67187-.11719.9375-.17187 1.76172-.17187 2.46875 0 .625.05468 1.1172.17187 1.46875.11328.35547.28516.53125.51563.53125.3203 0 .8203-.35937 1.5-1.07812.6875-.71875 1.55078-1.72266 2.59375-3.01563.65625-.83203 1.05468-1.25 1.20312-1.25.07031 0 .14453.02735.21875.07813.08203.05469.125.13281.125.23437 0 .1797-.35547.75-1.0625 1.71875-.71094.96875-1.3125 1.7461-1.8125 2.32813-.71094.8125-1.38672 1.48047-2.03125 2-.64844.51172-1.2461.76562-1.79687.76562-.6875 0-1.16797-.33203-1.4375-1-.26172-.66406-.39063-1.5664-.39063-2.70312 0-.78906.03906-1.5625.125-2.3125.03906-.95703.0625-1.6289.0625-2.01563 0-.58203-.04687-.99218-.14062-1.23437-.08594-.23828-.22657-.35938-.42188-.35938-.71094 0-1.80469.90625-3.28125 2.71875-1.48047 1.8047-2.90234 3.71485-4.26562 5.73438l-.67188 1.03125c-.07422.14453-.1875.23437-.34375.26562-.15625.03907-.34375.0625-.5625.0625Zm0 0" fill="#fff" fill-opacity="1"/></svg>