<?xml version="1.0" standalone="no"?>
<!DOCTYPE svg PUBLIC "-//W3C//DTD SVG 20010904//EN"
 "http://www.w3.org/TR/2001/REC-SVG-20010904/DTD/svg10.dtd">
<svg version="1.0" xmlns="http://www.w3.org/2000/svg"
 width="150.000000pt" height="150.000000pt" viewBox="0 0 150.000000 150.000000"
 preserveAspectRatio="xMidYMid meet">

<g transform="translate(0.000000,150.000000) scale(0.100000,-0.100000)"
fill="#000000" stroke="none">
<path d="M1251 1464 c-33 -27 -41 -67 -21 -104 9 -16 -5 -43 -82 -159 -88
-133 -95 -141 -126 -141 -18 0 -41 -5 -52 -12 -16 -10 -29 -7 -79 17 -49 23
-61 33 -61 52 0 35 -17 61 -51 78 -64 34 -139 -26 -125 -98 6 -29 0 -38 -70
-108 -75 -75 -76 -76 -119 -71 -37 4 -47 1 -69 -21 -16 -16 -26 -37 -26 -54 0
-25 -8 -33 -64 -60 -56 -28 -66 -30 -82 -18 -30 23 -82 18 -109 -10 -58 -57
-16 -155 65 -155 32 0 80 48 80 81 0 25 7 32 61 60 59 29 62 30 95 14 65 -31
130 14 127 88 -1 40 3 47 74 118 73 74 77 77 114 72 29 -4 45 -1 59 12 18 16
21 15 81 -17 53 -28 63 -38 67 -63 9 -72 96 -102 147 -50 26 25 33 72 16 104
-8 14 9 46 81 154 75 113 95 137 115 137 71 0 119 70 88 129 -29 57 -84 67
-134 25z m80 -24 c36 -20 21 -80 -20 -80 -51 0 -69 46 -29 74 27 19 24 19 49
6z m-551 -301 c9 -16 8 -26 -5 -45 -19 -30 -51 -29 -71 1 -12 18 -11 24 2 43
19 28 60 29 74 1z m281 -140 c16 -30 -3 -69 -34 -69 -29 0 -47 17 -47 45 0 45
60 63 81 24z m-573 -131 c29 -29 7 -78 -35 -78 -35 0 -52 43 -28 70 20 23 45
26 63 8z m-286 -145 c32 -29 16 -73 -27 -73 -42 0 -59 44 -29 74 20 20 33 20
56 -1z"/>
<path d="M1200 1151 c-6 -13 -10 -208 -10 -565 l0 -546 -25 0 -25 0 0 339 c0
295 -2 342 -16 355 -19 20 -48 20 -64 2 -9 -12 -7 -17 9 -28 21 -13 21 -20 21
-341 l0 -328 -67 3 -68 3 -3 326 c-2 324 -2 327 19 332 13 4 20 12 17 24 -4
24 -41 28 -62 8 -14 -15 -16 -56 -16 -356 l0 -340 -27 3 -28 3 -3 409 c-1 282
-6 413 -13 423 -15 17 -180 18 -197 1 -9 -9 -12 -117 -12 -425 l0 -413 -30 0
-30 0 0 268 c0 151 -4 274 -10 282 -7 11 -32 16 -94 18 -132 6 -126 20 -126
-303 l0 -265 -25 0 -25 0 0 198 c0 141 -3 201 -12 210 -16 16 -190 16 -206 0
-9 -9 -12 -69 -12 -209 0 -197 0 -198 -22 -201 -13 -2 -23 -10 -23 -18 0 -13
87 -15 725 -15 638 0 725 2 725 15 0 8 -10 16 -22 18 l-23 3 0 250 c0 242 -1
249 -20 249 -19 0 -20 -8 -22 -248 l-3 -247 -67 -3 -68 -3 0 546 0 545 70 0
70 0 2 -262 c3 -226 5 -263 18 -263 13 0 15 37 18 260 1 143 0 270 -3 283 -5
21 -10 22 -105 22 -88 0 -100 -2 -110 -19z m-390 -706 l0 -405 -70 0 -70 0 0
405 0 405 70 0 70 0 0 -405z m-282 -142 l-3 -258 -67 -3 -68 -3 0 261 0 260
70 0 70 0 -2 -257z m-288 -73 l0 -191 -67 3 -68 3 -3 175 c-1 96 0 180 2 187
4 9 27 13 71 13 l65 0 0 -190z"/>
</g>
</svg>
