<?xml version="1.0" standalone="no"?>
<!DOCTYPE svg PUBLIC "-//W3C//DTD SVG 20010904//EN"
 "http://www.w3.org/TR/2001/REC-SVG-20010904/DTD/svg10.dtd">
<svg version="1.0" xmlns="http://www.w3.org/2000/svg"
 width="150.000000pt" height="150.000000pt" viewBox="0 0 150.000000 150.000000"
 preserveAspectRatio="xMidYMid meet">

<g transform="translate(0.000000,150.000000) scale(0.100000,-0.100000)"
fill="#000000" stroke="none">
<path d="M666 1464 c-75 -24 -129 -86 -215 -249 -41 -77 -83 -155 -93 -172
-152 -276 -328 -619 -338 -661 -54 -229 187 -437 387 -333 67 34 108 91 223
306 62 116 115 213 119 218 4 4 29 -34 56 -85 105 -201 197 -364 216 -384 11
-12 43 -34 72 -50 43 -24 64 -29 122 -29 109 0 191 53 248 159 18 33 22 58 22
131 0 102 -1 104 -160 400 -42 77 -106 196 -142 264 -98 186 -194 355 -230
405 -56 78 -182 114 -287 80z m182 -76 c58 -29 86 -74 280 -438 27 -52 83
-156 122 -230 178 -331 180 -335 180 -399 0 -77 -38 -153 -99 -196 -38 -27
-51 -30 -116 -30 -65 0 -78 3 -116 30 -44 31 -70 75 -244 401 -32 60 -81 150
-108 199 -27 50 -85 158 -128 242 -71 137 -79 158 -79 208 0 175 160 286 308
213z m-233 -548 c52 -96 95 -181 95 -189 0 -13 -109 -226 -136 -266 -14 -19
-14 -19 -14 1 0 37 -51 123 -96 162 -71 63 -180 86 -261 55 -10 -4 -8 4 6 28
11 19 46 84 78 144 32 61 87 164 123 231 l64 121 23 -56 c12 -31 65 -135 118
-231z m-265 -300 c88 -24 153 -116 153 -215 0 -136 -91 -234 -216 -235 -81 0
-159 55 -194 137 -17 42 -17 144 0 186 45 105 149 157 257 127z"/>
</g>
</svg>
