<?xml version="1.0" standalone="no"?>
<!DOCTYPE svg PUBLIC "-//W3C//DTD SVG 20010904//EN"
 "http://www.w3.org/TR/2001/REC-SVG-20010904/DTD/svg10.dtd">
<svg version="1.0" xmlns="http://www.w3.org/2000/svg"
 width="150.000000pt" height="150.000000pt" viewBox="0 0 150.000000 150.000000"
 preserveAspectRatio="xMidYMid meet">

<g transform="translate(0.000000,150.000000) scale(0.100000,-0.100000)"
fill="#000000" stroke="none">
<path d="M736 1459 c-56 -13 -132 -54 -186 -99 l-47 -39 -104 -3 c-96 -3 -104
-4 -104 -23 0 -18 8 -20 87 -23 l88 -3 -16 -24 -16 -25 -189 0 -189 0 0 25 c0
24 2 24 83 27 76 3 82 5 85 26 3 21 1 22 -90 22 -60 0 -98 -4 -106 -12 -14
-14 -17 -984 -4 -1006 7 -9 48 -12 173 -10 156 3 164 4 164 23 0 19 -8 20
-153 23 l-152 3 2 412 3 412 172 3 c95 1 173 -1 173 -5 0 -5 -6 -28 -14 -53
l-13 -45 -108 -3 c-60 -1 -115 -8 -122 -14 -16 -13 -18 -199 -3 -229 10 -17
22 -19 125 -19 85 0 115 -3 115 -12 0 -7 3 -23 6 -35 6 -23 6 -23 -119 -23
-127 0 -151 -7 -127 -35 10 -12 41 -15 145 -15 132 0 132 0 143 -25 7 -14 12
-28 12 -30 0 -3 -65 -5 -144 -5 -115 0 -146 -3 -156 -15 -10 -12 -10 -18 0
-30 10 -12 43 -15 180 -15 145 0 169 -2 181 -17 8 -9 40 -36 73 -60 121 -89
270 -106 401 -44 l64 29 24 -31 c17 -23 31 -31 50 -29 18 1 33 -8 53 -31 l27
-32 -384 -5 -384 -5 -3 -23 c-3 -21 0 -22 53 -22 l56 0 -7 -37 c-9 -51 -11
-53 -47 -53 -59 0 -102 -53 -95 -116 l3 -29 296 -3 c327 -3 327 -3 314 58 -11
50 -51 90 -91 90 -37 0 -54 20 -54 64 l0 26 194 0 193 0 62 -69 c34 -39 70
-72 80 -76 51 -16 108 48 98 112 -4 19 -27 58 -57 95 l-51 63 1 426 c0 261 -3
437 -10 453 -9 26 -10 26 -121 26 l-112 0 -37 34 c-104 94 -242 134 -364 105z
m156 -50 c74 -16 123 -43 185 -102 79 -74 116 -148 147 -289 7 -29 33 -38 42
-14 5 12 -16 108 -32 151 -5 12 3 15 45 15 l51 0 0 -347 -1 -348 -33 38 c-24
27 -32 44 -29 61 4 17 -4 36 -22 60 l-27 35 23 68 c26 81 32 178 9 178 -10 0
-18 -20 -27 -65 -24 -131 -67 -214 -154 -295 -77 -72 -146 -100 -249 -100 -77
0 -92 3 -152 33 -155 76 -252 247 -252 447 0 231 127 417 324 471 58 16 87 17
152 3z m438 -164 c0 -24 -2 -25 -65 -25 -53 0 -66 3 -75 19 -5 11 -10 22 -10
25 0 3 34 6 75 6 73 0 75 -1 75 -25z m-960 -310 l0 -75 -90 0 -90 0 0 75 0 75
90 0 90 0 0 -75z m838 -327 c19 -19 15 -30 -39 -91 -49 -55 -52 -57 -70 -41
-18 16 -17 19 31 71 28 30 50 59 50 64 0 13 14 11 28 -3z m137 -228 c58 -68
105 -130 105 -137 0 -21 -39 -55 -54 -46 -16 9 -216 244 -216 254 0 13 42 60
52 57 5 -2 56 -59 113 -128z m-527 -130 c5 -21 7 -42 4 -45 -3 -3 -61 -5 -130
-5 l-124 0 7 37 c4 21 9 41 11 45 3 5 54 8 113 8 l109 0 10 -40z m132 -119 c5
-11 10 -22 10 -25 0 -3 -117 -6 -260 -6 -207 0 -260 3 -260 13 0 34 22 37 262
37 224 0 238 -1 248 -19z"/>
<path d="M743 1355 c-171 -47 -283 -215 -283 -421 0 -95 24 -186 68 -254 31
-49 79 -100 94 -100 25 0 15 34 -25 83 -202 249 -61 651 229 650 102 -1 190
-53 252 -151 73 -115 83 -290 24 -413 -72 -150 -200 -215 -365 -185 -48 8 -49
8 -45 -15 7 -51 158 -62 254 -20 216 96 304 391 188 628 -74 152 -245 239
-391 198z"/>
<path d="M575 1026 c-27 -41 -16 -77 33 -104 23 -13 42 -28 42 -33 0 -16 -32
-23 -51 -11 -46 29 -71 -11 -27 -42 51 -36 118 -9 118 46 0 42 -10 58 -52 79
-29 15 -37 24 -29 32 7 7 18 7 36 -1 46 -21 64 14 23 42 -34 24 -75 20 -93 -8z"/>
<path d="M750 935 l0 -115 51 0 c47 0 50 2 47 23 -2 16 -11 23 -30 25 -20 2
-28 9 -28 22 0 13 8 20 28 22 19 2 27 9 27 23 0 14 -8 21 -27 23 -20 2 -28 9
-28 22 0 13 8 20 28 22 19 2 28 9 30 26 3 20 0 22 -47 22 l-51 0 0 -115z"/>
<path d="M952 1034 c-64 -45 -68 -127 -9 -191 45 -50 136 -15 152 59 22 99
-70 184 -143 132z m78 -44 c36 -19 32 -102 -5 -116 -48 -19 -92 34 -73 86 14
39 41 50 78 30z"/>
<path d="M151 486 c-24 -29 -1 -36 110 -36 109 0 110 0 107 23 -3 21 -8 22
-104 25 -80 2 -104 0 -113 -12z"/>
</g>
</svg>
