<?xml version="1.0" standalone="no"?>
<!DOCTYPE svg PUBLIC "-//W3C//DTD SVG 20010904//EN"
 "http://www.w3.org/TR/2001/REC-SVG-20010904/DTD/svg10.dtd">
<svg version="1.0" xmlns="http://www.w3.org/2000/svg"
 width="150.000000pt" height="150.000000pt" viewBox="0 0 150.000000 150.000000"
 preserveAspectRatio="xMidYMid meet">

<g transform="translate(0.000000,150.000000) scale(0.100000,-0.100000)"
fill="#000000" stroke="none">
<path d="M230 1461 c-161 -49 -248 -216 -194 -374 19 -56 81 -128 129 -151 34
-17 35 -19 28 -54 -10 -48 -10 -236 0 -283 7 -34 5 -37 -22 -49 -17 -7 -50
-33 -74 -59 -56 -60 -81 -130 -75 -215 4 -73 31 -125 53 -106 12 10 11 18 -1
52 -20 58 -17 116 10 174 57 122 198 177 316 123 81 -37 121 -87 141 -178 22
-104 -47 -229 -146 -267 -68 -26 -160 -16 -223 23 -41 26 -53 29 -62 18 -15
-17 19 -50 80 -78 125 -57 297 2 360 124 l19 36 63 -13 c80 -17 146 -17 226 0
l63 13 19 -37 c43 -85 146 -144 250 -143 159 0 280 123 280 282 0 106 -67 217
-152 252 -23 9 -28 17 -24 33 23 83 29 162 17 234 -7 41 -15 80 -17 87 -3 6 6
17 20 23 41 18 106 83 128 126 29 57 35 159 14 223 -47 142 -203 221 -352 178
-48 -14 -69 -27 -116 -75 -32 -33 -58 -67 -58 -76 0 -13 -7 -14 -42 -7 -55 10
-232 10 -279 0 -34 -8 -36 -7 -63 35 -66 105 -207 162 -316 129z m179 -61
c127 -65 177 -233 101 -341 -25 -35 -26 -59 -1 -59 32 0 75 99 77 179 3 57 5
66 26 75 31 13 236 12 268 -1 21 -9 24 -16 22 -51 -6 -79 38 -180 103 -234 53
-44 97 -61 172 -66 l73 -5 10 -36 c13 -47 13 -196 -1 -243 l-10 -38 -58 0
c-162 0 -285 -119 -286 -277 l0 -63 -40 -12 c-52 -14 -188 -14 -240 0 l-40 12
-1 67 c0 102 -51 187 -141 240 -36 21 -63 27 -124 31 -75 4 -80 6 -87 31 -9
34 -9 228 0 262 7 25 12 27 80 31 77 5 138 29 138 53 0 19 -7 19 -79 -1 -103
-29 -195 1 -258 84 -103 135 -43 325 119 378 52 17 127 10 177 -16z m850 14
c67 -19 141 -90 159 -150 35 -120 -14 -240 -122 -296 -53 -28 -154 -31 -207
-5 -87 43 -139 123 -139 217 0 72 19 123 63 168 70 74 150 95 246 66z m5 -885
c57 -16 131 -90 152 -151 36 -109 -4 -223 -100 -283 -45 -27 -58 -30 -132 -30
-75 0 -86 3 -125 30 -72 51 -103 104 -107 186 -3 42 1 82 9 102 48 120 175
182 303 146z"/>
<path d="M302 1294 c-12 -8 -22 -22 -22 -30 0 -22 -35 -17 -68 11 -37 31 -49
31 -58 3 -13 -41 -7 -96 14 -132 l21 -35 -27 -3 c-43 -5 -39 -33 8 -52 53 -21
105 -20 156 3 49 23 81 60 95 115 5 22 15 55 20 71 20 58 19 59 -51 62 -47 2
-72 -2 -88 -13z m78 -39 c8 -9 10 -29 7 -51 -11 -67 -53 -109 -118 -119 -18
-3 -28 -3 -21 1 14 6 17 44 3 44 -18 0 -61 54 -61 76 0 22 1 23 35 8 55 -23
84 -19 91 14 4 15 9 30 11 35 7 12 40 8 53 -8z"/>
<path d="M878 942 c-3 -12 -31 -29 -74 -47 -56 -23 -82 -28 -141 -26 -106 3
-113 -3 -113 -97 0 -80 9 -102 41 -102 17 0 29 -53 29 -126 0 -28 4 -34 21
-34 21 0 21 4 17 81 l-5 82 64 -6 c56 -6 63 -4 63 12 0 12 -11 21 -32 27 -31
9 -33 13 -36 61 l-3 52 43 12 c24 6 60 20 80 30 20 10 40 19 43 19 3 0 5 -49
5 -109 l0 -110 -26 2 c-38 3 -41 -20 -5 -40 16 -10 32 -26 35 -36 2 -11 11
-17 18 -15 10 4 14 49 16 196 2 183 2 192 -17 192 -10 0 -21 -8 -23 -18z
m-208 -177 l0 -55 -40 0 -40 0 0 55 0 55 40 0 40 0 0 -55z"/>
<path d="M1175 1325 c-19 -18 -25 -35 -25 -69 0 -39 -3 -45 -22 -48 -33 -5
-37 -38 -4 -38 24 0 25 -2 28 -72 2 -57 6 -73 18 -73 12 0 16 16 18 73 3 68 4
72 26 72 28 0 36 8 29 26 -3 8 -16 14 -30 14 -22 0 -24 3 -21 42 3 44 5 45 75
64 7 2 10 10 7 19 -10 25 -71 19 -99 -10z"/>
<path d="M1057 432 c-14 -15 -17 -41 -17 -135 0 -151 -4 -147 149 -147 153 0
151 -2 151 148 0 151 -1 152 -153 152 -98 0 -116 -3 -130 -18z m238 -132 l0
-105 -105 0 -105 0 -3 94 c-1 52 0 101 2 108 4 11 29 13 108 11 l103 -3 0
-105z"/>
<path d="M1152 353 c-41 -16 -31 -96 13 -113 44 -17 85 13 85 61 0 45 -50 71
-98 52z m53 -53 c0 -8 -8 -16 -17 -18 -13 -2 -18 3 -18 18 0 15 5 20 18 18 9
-2 17 -10 17 -18z"/>
<path d="M230 305 c0 -84 3 -107 15 -111 8 -3 45 11 82 31 78 43 103 63 103
81 0 16 -152 104 -180 104 -19 0 -20 -6 -20 -105z m138 0 c2 -2 -20 -17 -47
-34 l-51 -31 0 61 0 61 48 -28 c26 -15 48 -28 50 -29z"/>
</g>
</svg>
