<?xml version="1.0" standalone="no"?>
<!DOCTYPE svg PUBLIC "-//W3C//DTD SVG 20010904//EN"
 "http://www.w3.org/TR/2001/REC-SVG-20010904/DTD/svg10.dtd">
<svg version="1.0" xmlns="http://www.w3.org/2000/svg"
 width="150.000000pt" height="150.000000pt" viewBox="0 0 150.000000 150.000000"
 preserveAspectRatio="xMidYMid meet">

<g transform="translate(0.000000,150.000000) scale(0.100000,-0.100000)"
fill="#000000" stroke="none">
<path d="M165 1426 c-43 -19 -95 -73 -119 -126 -20 -44 -21 -59 -21 -560 0
-501 1 -516 21 -560 25 -54 76 -108 121 -126 48 -20 1118 -20 1166 0 45 18 96
72 121 126 20 44 21 59 21 560 0 501 -1 516 -21 560 -25 54 -76 108 -121 126
-47 20 -1123 20 -1168 0z m1161 -115 c64 -39 64 -38 64 -571 0 -533 0 -532
-64 -571 -29 -18 -60 -19 -576 -19 -516 0 -547 1 -576 19 -64 39 -64 38 -64
571 0 533 0 532 64 571 29 18 60 19 576 19 516 0 547 -1 576 -19z"/>
<path d="M592 1048 c-9 -9 -12 -91 -12 -308 0 -306 2 -320 41 -320 23 0 372
276 381 301 4 10 4 28 0 38 -9 25 -358 301 -381 301 -9 0 -22 -5 -29 -12z
m191 -228 c53 -41 96 -77 96 -80 0 -5 -180 -148 -206 -163 -11 -7 -13 22 -13
163 0 141 2 170 13 163 8 -4 57 -42 110 -83z"/>
</g>
</svg>
