<?xml version="1.0" standalone="no"?>
<!DOCTYPE svg PUBLIC "-//W3C//DTD SVG 20010904//EN"
 "http://www.w3.org/TR/2001/REC-SVG-20010904/DTD/svg10.dtd">
<svg version="1.0" xmlns="http://www.w3.org/2000/svg"
 width="150.000000pt" height="150.000000pt" viewBox="0 0 150.000000 150.000000"
 preserveAspectRatio="xMidYMid meet">

<g transform="translate(0.000000,150.000000) scale(0.100000,-0.100000)"
fill="#000000" stroke="none">
<path d="M115 1466 c-39 -17 -70 -52 -90 -98 -13 -32 -15 -116 -15 -615 0
-541 2 -581 19 -618 21 -46 54 -79 94 -94 39 -15 1215 -15 1254 0 40 15 73 48
94 94 17 37 19 77 19 620 0 543 -2 583 -19 620 -21 46 -54 79 -94 94 -45 17
-1223 14 -1262 -3z m1245 -49 c19 -7 44 -27 57 -46 21 -31 23 -46 23 -152 l0
-119 -690 0 -690 0 0 119 c0 106 2 121 23 152 13 19 38 39 57 46 50 17 1170
17 1220 0z m80 -806 l0 -438 -23 -34 c-13 -19 -38 -39 -57 -46 -50 -17 -1170
-17 -1220 0 -19 7 -44 27 -57 46 l-23 34 0 438 0 439 690 0 690 0 0 -439z"/>
<path d="M147 1330 c-72 -57 -20 -168 68 -146 32 8 58 58 50 97 -7 31 -48 69
-75 69 -10 0 -29 -9 -43 -20z m70 -56 c3 -8 -2 -23 -11 -32 -15 -15 -17 -15
-32 0 -21 21 -11 48 16 48 11 0 23 -7 27 -16z"/>
<path d="M380 1322 c-54 -55 -27 -142 46 -142 47 0 74 29 74 79 0 45 -23 77
-62 87 -22 5 -33 0 -58 -24z m70 -47 c10 -12 10 -18 0 -30 -25 -30 -61 -7 -46
30 3 8 12 15 19 15 8 0 20 -7 27 -15z"/>
<path d="M650 1342 c-35 -11 -60 -46 -60 -82 0 -73 82 -109 130 -58 28 30 27
88 -2 115 -27 24 -48 32 -68 25z m35 -82 c0 -16 -6 -26 -18 -28 -19 -4 -32 20
-23 44 9 25 41 13 41 -16z"/>
<path d="M783 882 c-8 -5 -35 -126 -64 -281 -43 -228 -50 -274 -38 -282 9 -5
19 -4 26 4 6 7 34 131 62 277 38 205 47 268 38 277 -7 7 -18 9 -24 5z"/>
<path d="M498 695 c-49 -46 -88 -87 -88 -92 0 -5 38 -46 84 -92 55 -54 90 -82
101 -79 37 7 25 31 -46 98 l-74 69 74 75 c64 64 73 77 61 90 -7 9 -15 16 -19
16 -3 0 -45 -38 -93 -85z"/>
<path d="M890 764 c-12 -13 -3 -26 61 -90 l74 -75 -74 -69 c-72 -67 -83 -92
-45 -98 28 -4 189 160 178 181 -10 16 -169 167 -177 167 -2 0 -10 -7 -17 -16z"/>
</g>
</svg>
